PathFileType	4	(X/Y/Z)	/home/abdul/Desktop/myosuite/custom_workspace/IK/output/S14_12_1.trc
DataRate	CameraRate	NumFrames	NumMarkers	Units	OrigDataRate	OrigDataStartFrame	OrigNumFrames
200.0	200.0	62	3	mm	200.0	256	2040
Frame#	Time	V_Shoulder			V_Elbow			V_Wrist		
		X1	Y1	Z1	X2	Y2	Z2	X3	Y3	Z3

256	1.275	-141.10426147220065	676.1890804308007	318.77354641388365	-170.16025537206428	463.90266669953917	50.30806762565007	-80.94692449984461	228.487246746393	45.42100574471714
257	1.28	-140.90915894765328	675.9157174348505	318.8518254417485	-169.8668056201882	463.7059276730514	50.260101504252816	-80.58164201278603	228.3805161233937	45.17169160737288
258	1.285	-140.71504933472247	675.6459714468306	318.9298858608516	-169.57510854182877	463.5137341665462	50.21030925511823	-80.21479071524479	228.27913288109622	44.918903061772625
259	1.29	-140.52196133192783	675.3797676689043	319.00770282335145	-169.28520808461735	463.32603926761533	50.15873990317239	-79.84642197038454	228.1829118269457	44.66289272484777
260	1.295	-140.3299227834553	675.117031152695	319.08525148779336	-168.99715028775046	463.1427906709257	50.10544676423886	-79.47660741754197	228.09166349560348	44.403925838260776
261	1.3	-140.13896067531346	674.857686898627	319.1625070524542	-168.71098311360657	462.96393080020374	50.05048725400272	-79.10543814285688	228.0051944184185	44.14227910309987
262	1.305	-139.94910113291624	674.6016599523483	319.2394447884815	-168.42675627006983	462.7893969501338	49.993922677552035	-78.73302377660256	227.92330742587194	43.87823947265643
263	1.31	-139.76036942007747	674.3488754981685	319.3160400727664	-168.14452102434288	462.6191214471214	49.935818000727416	-78.35949152307984	227.84580198076486	43.612102909696574
264	1.315	-139.57278993940088	674.0992589494437	319.3922684204939	-167.86433000906868	462.45303182781214	49.876241604585765	-77.98498512915529	227.77247453977827	43.344173114745715
265	1.32	-139.38638623404594	673.8527360358595	319.4681055173123	-167.58623702161594	462.29105103420807	49.81526502435349	-77.60966379770754	227.70311894090776	43.07476023197766
266	1.325	-139.20118099084553	673.609232887563	319.543527251067	-167.31029681741245	462.1330976241783	49.75296267430616	-77.23370105239216	227.63752681416577	42.80417953933835
267	1.33	-139.01719604475045	673.3686761161125	319.6185097430443	-167.03656489823692	461.97908599612174	49.68941156006557	-76.8572835602483	227.57548801285196	42.53275012953827
268	1.335	-138.8344523845714	673.1309928922107	319.6930293786724	-166.76509729640063	461.82892662651324	49.62469097985212	-76.48060991874596	227.51679106261543	42.260793588517934
269	1.34	-138.65297015998695	672.8961110202071	319.76706283762866	-166.49595035576738	461.6825263190325	49.55888221626895	-76.10388941391459	227.46122362547484	41.98863267792646
270	1.345	-138.47276868978352	672.6639590093531	319.840587123303	-166.2291805105716	461.53978846396444	49.49206822022539	-75.72734075619987	227.4085729759193	41.716590028057
271	1.35	-138.29386647128987	672.4344661418089	319.91357959157006	-165.96484406300215	461.4006133065423	49.4243332886302	-75.35119080066738	227.35862648618945	41.44498684755294
272	1.355	-138.11628119096704	672.2075625374031	319.9860179788246	-165.70299696052075	461.2648982229008	49.35576273749967	-74.97567325811066	227.3111721178288	41.1741416560386
273	1.36	-137.9400297361126	671.983179215154	320.05788042923456	-165.4436945738831	461.1325380023087	49.28644257213287	-74.601027403527	227.26599891660615	40.90436904563656
274	1.365	-137.76512820763404	671.7612481515743	320.1291455211708	-165.18699147682173	461.00342513435317	49.21645915600501	-74.22749678829882	227.22289750793334	40.635978477114
275	1.37	-137.59159193384596	671.5417023357767	320.19979229277277	-164.9329412283383	460.8774500997625	49.145898880020454	-73.85532796226278	227.1816605899439	40.36927311615247
276	1.375	-137.41943548524281	671.3244758214142	320.26980026661124	-164.681596158537	460.7545016635693	49.07484783375038	-73.48476921166426	227.1420834214553	40.10454871496154
277	1.38	-137.24867269019708	671.109503775488	320.33914947341236	-164.43300715890857	460.6344671693406	49.00339148025506	-73.11606931878283	227.10396430210866	39.84209254415856
278	1.385	-137.07931665153134	670.8967225240655	320.40782047480894	-164.18722347795034	460.51723283322804	48.93161433605878	-72.7494763487775	227.06710504206484	39.58218237951545
279	1.39	-136.91137976391067	670.6860695949549	320.475794385086	-163.94429252297653	460.4026840366224	48.859599657805546	-72.38523646903828	227.03131141873507	39.32508554783193
280	1.395	-136.74487373200165	670.4774837573838	320.5430528918923	-163.70425966894055	460.2907056162368	48.787429137077595	-72.02359280604854	226.99639361813627	39.07105803583404
281	1.4	-136.57980958934036	670.2709050587417	320.6095782758884	-163.4671680750535	460.18118215048145	48.71518260480482	-71.66478434445898	226.9621666585838	38.8203436656197
282	1.405	-136.4161977178543	670.0662748584423	320.6753534293071	-163.23305850994146	460.07399824103834	48.64293774663371	-71.30904487275309	226.92845079457072	38.57317333978152
283	1.41	-136.25404786797856	669.8635358589682	320.740361873402	-163.00196918604036	459.9690387885945	48.570769830558376	-70.95660197954774	226.89507189882482	38.3297643589336
284	1.415	-136.09336917930864	669.6626321341679	320.80458777476383	-162.77393560387986	459.8661892617423	48.498751448044324	-70.60767610422134	226.8618618206909	38.09031981395522
285	1.42	-135.93417020172967	669.4635091548704	320.8680159604856	-162.54899040685763	459.7653359581129	48.42695226979866	-70.26247964520128	226.82865871914458	37.85502805484329
286	1.425	-135.77645891696292	669.2661138118921	320.9306319321599	-162.32716324705285	459.66636625686544	48.35543881725809	-69.92121612887068	226.79530736891542	37.62406223763925
287	1.43	-135.62024276046893	669.0703944365097	320.9924218786934	-162.10848066257284	459.56916886171496	48.284274250779745	-69.58407944167651	226.76165943836946	37.397579950466735
288	1.435	-135.4655286436472	668.8763008184736	321.05337268792806	-161.89296596687058	459.4736340337468	48.21351817542896	-69.25125312763853	226.72757373798174	37.17572291928688
289	1.44	-135.312322976272	668.6837842216429	321.11347195705656	-161.68063915041333	459.37965381332776	48.143226465164076	-68.92290975307313	226.69291643841228	36.95861679355052
290	1.445	-135.16063168910432	668.4927973973163	321.1727080018262	-161.4715167950218	459.28712223048956	48.07345110612076	-68.59921033995965	226.65756125738463	36.746371011502745
291	1.45	-135.01046025661992	668.3032945953445	321.2310698645237	-161.26561200114105	459.1959355032306	48.00424005959846	-68.28030386899297	226.62138961475384	36.53907874447877
292	1.455	-134.8618137197947	668.115231573101	321.28854732073825	-161.0629343282423	459.10599222324623	47.93563714524974	-67.96632685298538	226.5842907553377	36.3368169191214
293	1.46	-134.71469670888823	667.928565602393	321.34513088490127	-160.86348974849506	459.0171935286688	47.86768194486929	-67.65740298090553	226.54616183927357	36.139646316053366
294	1.465	-134.5691134661678	667.743255474393	321.40081181460135	-160.66728061378805	458.9294432634666	47.800409727074964	-67.35364283247551	226.50690799984778	35.94761174315343
295	1.47	-134.42506786851655	667.5592615026734	321.4555821136798	-160.4743056361163	458.8426481232193	47.73385139306808	-67.055143662888	226.46644236892794	35.76074228121553
296	1.475	-134.28256344986895	667.3765455244214	321.5094345341077	-160.28455988129423	458.756717787056	47.66803344355476	-66.7619892568594	226.4246860703078	35.57905159941809
297	1.48	-134.14160342342007	667.1950708999174	321.56236257665455	-160.09803477589395	458.67156503561023	47.60297796680572	-66.47424985090029	226.38156818144935	35.402538337696754
298	1.485	-134.0021907035548	667.0148025103489	321.61436049035245	-159.91471812725223	458.58710585491065	47.53870264772793	-66.19198212236473	226.33702566427527	35.23118655280015
299	1.49	-133.8643279274452	666.8357067540454	321.6654232707701	-159.73459415633414	458.5032595261943	47.4752207977197	-65.91522924353512	226.2910032658283	35.06496622451702
300	1.495	-133.72801747626656	666.6577515412001	321.71554665710477	-159.5576435431868	458.41994870169174	47.41254140498056	-65.64402099871266	226.24345338976914	34.903833818294416
301	1.5	-133.59326149598326	666.4809062871605	321.76472712810966	-159.38384348466616	458.33709946649526	47.350669204849524	-65.37837396201347	226.19433593983254	34.74773290022335
302	1.505	-133.46006191765832	666.3051419043525	321.8129618968684	-159.21316776407042	458.2546413866828	47.28960476965102	-65.11829173332022	226.1436181364994	34.596594800149816
303	1.51	-133.32842047724134	666.1304307929144	321.8602489044358	-159.04558683226645	458.1725075439267	47.22934461743602	-64.86376522960913	226.091274308273	34.45033931847788
304	1.515	-133.19833873479342	665.9567468301025	321.9065868123632	-158.8810678998534	458.09063455687317	47.169881338918856	-64.614773028662	226.0372856590661	34.30887547206754
305	1.52	-133.06981809310776	665.7840653585376	321.95197499412757	-158.71957503986448	458.0089625896312	47.11120374182669	-64.37128176198473	225.98164001331457	34.17210227449377
306	1.525	-132.94285981568797	665.6123631733531	321.99641352548787	-158.56106930047258	457.92743534775843	47.0532970118	-64.13324655358736	225.9243315405319	34.03990954582617
307	1.53	-132.81746504404884	665.4416185083035	322.03990317378884	-158.40550882712876	457.84600006218045	46.996142888908594	-63.90061150113606	225.86536046110524	33.91217874700965
308	1.535	-132.69363481430517	665.2718110208937	322.08244538624	-158.25284899353284	457.76460746152316	46.93971985877938	-63.6733101958652	225.8047327352085	33.78878383387698
309	1.54	-132.57137007301813	665.1029217765804	322.12404227719304	-158.10304254080768	457.68321173337824	46.88400335726871	-63.45126627753793	225.74245973677114	33.66959212580352
310	1.545	-132.45067169227096	664.9349332320993	322.16469661444654	-157.95603972422356	457.60177047505954	46.828965987555414	-63.23439402066656	225.67855791449216	33.55446518402195
311	1.55	-132.33154048394715	664.7678292179667	322.20441180460534	-157.81178846679916	457.52024463444377	46.774577748479004	-63.02259894814826	225.61304844192787	33.44325969465165
312	1.555	-132.21397721318883	664.6015949202	322.243191877525	-157.6702345190894	457.4385984415168	46.72080627290286	-62.815778468439206	225.54595685870777	33.33582835156107
313	1.56	-132.09798261101344	664.4362168613023	322.28104146987243	-157.53132162445513	457.35679933127494	46.667617074843385	-62.6138225323775	225.47731270494728	33.23202073427295
314	1.565	-131.9835573860713	664.2716828805497	322.31796580783407	-157.39499168910194	457.2748178586536	46.61497380407389	-62.41661430577548	225.4071491509289	33.13168417623966
315	1.57	-131.87070223552848	664.1079821136182	322.3539706890054	-157.26118495616856	457.1926276061754	46.56283850688686	-62.224030853930685	225.3355026241121	33.03466461895886
316	1.575	-131.7594178550619	663.9451049715859	322.38906246349535	-157.1298401831423	457.1102050850253	46.51117189167866	-62.03594383425488	225.26241243551127	32.94080744756653
317	1.58	-131.6497049479567	663.7830431193428	322.42324801428236	-157.00089482188088	457.0275296302721	46.45993359800911	-61.852220193288396	225.18792040744734	32.84995830373458
